<?xml version="1.0" ?><svg height="32" id="svg7727" version="1.1" viewBox="0 0 32 32" width="32" xmlns="http://www.w3.org/2000/svg" xmlns:cc="http://creativecommons.org/ns#" xmlns:dc="http://purl.org/dc/elements/1.1/" xmlns:inkscape="http://www.inkscape.org/namespaces/inkscape" xmlns:rdf="http://www.w3.org/1999/02/22-rdf-syntax-ns#" xmlns:sodipodi="http://sodipodi.sourceforge.net/DTD/sodipodi-0.dtd" xmlns:svg="http://www.w3.org/2000/svg"><defs id="defs7729"><pattern height="6" id="EMFhbasepattern" patternUnits="userSpaceOnUse" width="6" x="0" y="0"/><pattern height="6" id="EMFhbasepattern-6" patternUnits="userSpaceOnUse" width="6" x="0" y="0"/><pattern height="6" id="EMFhbasepattern-9" patternUnits="userSpaceOnUse" width="6" x="0" y="0"/><pattern height="6" id="EMFhbasepattern-0" patternUnits="userSpaceOnUse" width="6" x="0" y="0"/><pattern height="6" id="EMFhbasepattern-1" patternUnits="userSpaceOnUse" width="6" x="0" y="0"/><pattern height="6" id="EMFhbasepattern-2" patternUnits="userSpaceOnUse" width="6" x="0" y="0"/><pattern height="6" id="EMFhbasepattern-5" patternUnits="userSpaceOnUse" width="6" x="0" y="0"/><pattern height="6" id="EMFhbasepattern-19" patternUnits="userSpaceOnUse" width="6" x="0" y="0"/><pattern height="6" id="EMFhbasepattern-17" patternUnits="userSpaceOnUse" width="6" x="0" y="0"/><pattern height="6" id="EMFhbasepattern-8" patternUnits="userSpaceOnUse" width="6" x="0" y="0"/><pattern height="6" id="EMFhbasepattern-22" patternUnits="userSpaceOnUse" width="6" x="0" y="0"/><pattern height="6" id="EMFhbasepattern-60" patternUnits="userSpaceOnUse" width="6" x="0" y="0"/><pattern height="6" id="EMFhbasepattern-54" patternUnits="userSpaceOnUse" width="6" x="0" y="0"/><pattern height="6" id="EMFhbasepattern-4" patternUnits="userSpaceOnUse" width="6" x="0" y="0"/><pattern height="6" id="EMFhbasepattern-48" patternUnits="userSpaceOnUse" width="6" x="0" y="0"/><pattern height="6" id="EMFhbasepattern-04" patternUnits="userSpaceOnUse" width="6" x="0" y="0"/><pattern height="6" id="EMFhbasepattern-14" patternUnits="userSpaceOnUse" width="6" x="0" y="0"/><pattern height="6" id="EMFhbasepattern-18" patternUnits="userSpaceOnUse" width="6" x="0" y="0"/><pattern height="6" id="EMFhbasepattern-50" patternUnits="userSpaceOnUse" width="6" x="0" y="0"/><pattern height="6" id="EMFhbasepattern-91" patternUnits="userSpaceOnUse" width="6" x="0" y="0"/><pattern height="6" id="EMFhbasepattern-05" patternUnits="userSpaceOnUse" width="6" x="0" y="0"/><pattern height="6" id="EMFhbasepattern-57" patternUnits="userSpaceOnUse" width="6" x="0" y="0"/><pattern height="6" id="EMFhbasepattern-59" patternUnits="userSpaceOnUse" width="6" x="0" y="0"/><pattern height="6" id="EMFhbasepattern-11" patternUnits="userSpaceOnUse" width="6" x="0" y="0"/><pattern height="6" id="EMFhbasepattern-7" patternUnits="userSpaceOnUse" width="6" x="0" y="0"/><pattern height="6" id="EMFhbasepattern-96" patternUnits="userSpaceOnUse" width="6" x="0" y="0"/><pattern height="6" id="EMFhbasepattern-95" patternUnits="userSpaceOnUse" width="6" x="0" y="0"/></defs><g id="layer1" transform="translate(0,-1020.3622)"><g id="g14941" transform="translate(-1369.7271,1764.7088)"><path d="m 1377.0905,-733.3035 c 0.2349,-2.09719 0.6348,-4.39172 1.9888,-6.0104 1.3872,-1.6584 3.5554,-2.82721 5.701,-3.0936 2.0671,-0.25665 4.3733,0.31705 6.0546,1.5468 1.7519,1.28142 3.0838,3.3844 3.4472,5.5243 0.3817,2.24795 -0.099,4.8763 -1.5026,6.6733 -1.614,2.06649 -4.4193,3.26024 -7.0269,3.5355 -1.9685,0.2078 -4.1304,-0.35775 -5.7452,-1.5026 -1.2899,-0.91451 -2.1172,-2.44516 -2.6517,-3.9333 -0.3102,-0.86358 -0.3673,-1.8281 -0.2652,-2.74 z" id="path14935" style="fill:#f66b6f;fill-opacity:1;fill-rule:evenodd;stroke:#000000;stroke-width:1px;stroke-linecap:butt;stroke-linejoin:miter;stroke-opacity:1"/><path d="m 1384.9688,-714.2317 0.625,-10.6875" id="path14937" style="fill:none;fill-rule:evenodd;stroke:#000000;stroke-width:1px;stroke-linecap:round;stroke-linejoin:round;stroke-opacity:1"/><path d="m 1379.0392,-739.20045 c 0,0 3.4993,-1.61741 5.3646,-1.59342 1.8519,0.0238 3.9121,0.47404 5.2838,1.71847 1.1954,1.08447 1.8235,2.82752 1.9375,4.4375 0.113,1.59574 -0.3044,3.35821 -1.2813,4.625 -1.0747,1.39354 -2.8043,2.58135 -4.5625,2.6562 -1.9459,0.0828 -4.203,-0.87799 -5.2812,-2.5 -1.0332,-1.55434 -0.9256,-3.85383 -0.25,-5.5937 0.5119,-1.31832 1.6578,-2.55456 3,-3 1.5785,-0.52385 3.6769,-0.36624 4.9375,0.7187 1.1714,1.00817 1.723,2.93928 1.3437,4.4375 -0.3959,1.56378 -1.8474,3.13491 -3.4375,3.4063 -1.3182,0.22498 -2.9324,-0.57487 -3.625,-1.7188 -0.6759,-1.1162 -0.6607,-2.89166 0.1532,-3.91161 0.7206,-0.90306 2.3177,-1.42589 3.3468,-0.90089 0.9633,0.49143 1.5374,2.01923 1.1563,3.0313 -0.2656,0.70541 -1.2559,1.18094 -1.9993,1.05644 -0.3986,-0.0667 -0.8288,-0.88461 -0.8288,-0.88461" id="path14939" style="fill:none;fill-rule:evenodd;stroke:#000000;stroke-width:1px;stroke-linecap:round;stroke-linejoin:round;stroke-opacity:1"/></g></g></svg>